<svg xmlns="http://www.w3.org/2000/svg" height="1em" width="1em" viewBox="0 0 128 128" xml:space="preserve"><g class="nav-icon-support" fill="#999"><path d="M120 96c0 9.5-7.7 17.2-17.2 17.2l-52-.2c-3.5 5.1-8.6 9-15.4 11.4l-6.9 2.5V113l-3.2.2C15.7 113.7 8 105.4 8 96V18.4C8 8.9 15.7 1.2 25.2 1.2h77.6c9.5 0 17.2 7.7 17.2 17.2V96zm-9.5-77.6c0-4.3-3.5-7.7-7.7-7.7H25.2c-4.3 0-7.7 3.4-7.7 7.7V96c0 4.3 3.5 7.7 7.7 7.8h11v11.1c4.9-1.9 8.7-6 10.2-11.1h56.3c4.3 0 7.7-3.5 7.7-7.7l.1-77.7zM76 57l-1.4 1.2c-3 2.5-3.4 3.2-3.4 6.3v6.2H55.1V63c0-6.3 1.6-8.3 5.5-12.3l6.7-6.8c.9-1 1.4-2.3 1.3-3.6 0-3-1.9-4.9-5-4.9-3.6 0-5.7 3-5.8 5.9l-.1 1.3h-17l.2-2.8c.7-12.4 10.5-20.2 23.2-20.2s21.3 8 21.3 19.8C85.5 48.1 81 52.6 76 57z"/><ellipse cx="63.2" cy="84.7" rx="9.8" ry="9.6"/></g></svg>