<svg xmlns="http://www.w3.org/2000/svg" style="width:32px;height:32px;position:relative;margin:8px;top:6px;left:8px;float:left" viewBox="0 0 128 128" xml:space="preserve"><path d="M32.43 100.85H4.88a4.55 4.55 0 0 1-4.54-4.53v-2c0-13.15 5.58-24.45 12.44-29.39A14.19 14.19 0 0 1 8.07 54.2c0-7.56 5.58-13.7 12.47-13.7S33 46.63 33 54.2a14.21 14.21 0 0 1-4.71 10.72 23.33 23.33 0 0 1 5 5 6.7 6.7 0 0 1 1 5.93 58.38 58.38 0 0 0-2.38 16.6 66.94 66.94 0 0 0 .52 8.4Zm63.4 0h27a4.84 4.84 0 0 0 4.84-4.66v-1.88c0-13.15-5.58-24.45-12.44-29.38a14.19 14.19 0 0 0 4.72-10.73c0-7.56-5.59-13.7-12.48-13.71S95 46.63 95 54.2a14.21 14.21 0 0 0 4.71 10.72 23.25 23.25 0 0 0-4.89 4.89A6.93 6.93 0 0 0 93.75 76a58.4 58.4 0 0 1 2.35 16.43 67 67 0 0 1-.49 8.16.22.22 0 0 0 .22.26ZM52.57 55.72a1.65 1.65 0 0 0 .14-2.38 18.46 18.46 0 0 1-4.77-12.55c0-9.74 7.19-17.64 16.06-17.64s16.06 7.9 16.06 17.64a18.49 18.49 0 0 1-4.77 12.55 1.65 1.65 0 0 0 .14 2.38C83.59 62.56 90 76.44 90 92.43a67 67 0 0 1-.48 8.08.38.38 0 0 1-.38.33H38.86a.38.38 0 0 1-.38-.33 67 67 0 0 1-.48-8.08c0-16 6.41-29.87 14.57-36.71Z"/></svg>