<svg xmlns="http://www.w3.org/2000/svg" height="1em" width="1em" viewBox="0 0 128 128" xml:space="preserve"><g class="nav-icon-news" fill="#999"><path d="M98.2 0H42.7c-8.9 0-16.4 6.6-17.5 15.4-7.7 2.1-13.1 9.1-13.1 17.1v77.8c0 9.8 7.9 17.7 17.7 17.7h68.5c9.8 0 17.7-7.9 17.7-17.7V17.7C115.9 7.9 108 0 98.2 0m10.3 110.3c0 5.7-4.6 10.3-10.3 10.3H29.8c-5.7 0-10.3-4.6-10.3-10.3V32.5c0-5.7 4.6-10.3 10.3-10.3h65.5c2 0 3.7-1.7 3.7-3.7s-1.7-3.7-3.7-3.7H32.9c1.3-4.4 5.3-7.4 9.9-7.4h55.5c5.7 0 10.3 4.6 10.3 10.3v92.6z"/><path d="M40.8 66.5h13C59.4 66.5 64 62 64 56.3v-13c0-5.6-4.6-10.2-10.2-10.2h-13c-5.6 0-10.2 4.6-10.2 10.2v13c0 5.7 4.6 10.2 10.2 10.2m-2.7-23.2c0-1.5 1.2-2.7 2.8-2.8h13c1.5 0 2.8 1.2 2.8 2.8v13c0 1.5-1.2 2.8-2.8 2.8h-13c-1.5 0-2.8-1.2-2.8-2.8v-13zm55.6-4.6H75.1c-2 0-3.7 1.7-3.7 3.7s1.7 3.7 3.7 3.7h18.6c2 0 3.7-1.7 3.7-3.7s-1.7-3.7-3.7-3.7m0 13H75.1c-2 0-3.7 1.7-3.7 3.7s1.7 3.7 3.7 3.7h18.6c2 0 3.7-1.7 3.7-3.7s-1.7-3.7-3.7-3.7m0 23.2H34.3c-2 0-3.7 1.7-3.7 3.7s1.7 3.7 3.7 3.7h59.4c2 0 3.7-1.7 3.7-3.7 0-2.1-1.7-3.7-3.7-3.7m0 13H34.3c-2 0-3.7 1.7-3.7 3.7s1.7 3.7 3.7 3.7h59.4c2 0 3.7-1.7 3.7-3.7 0-2.1-1.7-3.7-3.7-3.7m0 12.9H34.3c-2 0-3.7 1.7-3.7 3.7s1.7 3.7 3.7 3.7h59.4c2 0 3.7-1.7 3.7-3.7s-1.7-3.6-3.7-3.7"/></g></svg>