<svg xmlns="http://www.w3.org/2000/svg" height="3em" width="6em" viewBox="0 0 128 32" class="pla-svg-icon plo-header__logo"><path d="M12.7 8.4h4.6l6.4 10.5V8.4h4.6v15.1h-4.6L17.3 13v10.5h-4.6V8.4zM53.3 10h4.5v2h2.4v1.5h-2.4v10h-4.5v-10h-2.4V12h2.4v-2zm-22.4 3.5h4.5v10h-4.5v-10zm-.1-5.1h4.5v3.1h-4.5V8.4zm80.1 10v2.1c0 1.6-.9 2.3-1.8 2.3s-1.8-.7-1.8-2.3v-4.3c0-1.6.9-2.2 1.8-2.2s1.8.7 1.8 2.2v2.2zm-1.8-5.6c-3.6 0-6.5 2.5-6.5 5.6s2.9 5.6 6.5 5.6 6.5-2.5 6.5-5.6-2.9-5.6-6.5-5.6zM96.7 8.4h4.4v15.1h-4.4v-.6c-2.4 1.6-5.7.9-7.3-1.5-.6-.9-.9-2-.9-3.1.1-3 2.6-5.3 5.5-5.3h.1c.9.1 1.8.4 2.5.9l.1-5.5zm0 10v-1.8c.1-1-.6-1.8-1.6-1.9-1-.1-1.8.6-1.9 1.6v4c-.1 1 .6 1.8 1.6 1.9 1 .1 1.8-.6 1.9-1.6v-2.2zM45.8 13c2.7-.1 4.9 2 5 4.7v5.9h-4.4V17c-.1-1.1-1-1.9-2-1.8-1.1 0-2 .8-2.1 1.8v6.6h-4.4v-10h4.4v1.1c.9-1.1 2.1-1.6 3.5-1.7zm36.3 0c2.7-.1 4.9 2 5 4.7v5.9h-4.4V17c-.1-1.1-1-1.9-2-1.8-1.1 0-2 .8-2.1 1.8v6.6h-4.4v-10h4.4v1.1c.8-1.1 2.1-1.6 3.5-1.7zm-17.8 4c-.1-.7 0-1.3.3-2 .3-.6.9-.9 1.6-.9.6 0 1.2.4 1.6.9.3.6.4 1.3.3 2h-3.8zm3.7 3v.6c0 1.8-1.2 2.2-1.8 2.2-1.1 0-1.9-.9-1.9-2v-2.4h8.4c0-3.1-3-5.7-6.6-5.7s-6.6 2.5-6.6 5.6 2.9 5.6 6.6 5.6c2.8.1 5.3-1.5 6.3-4.1H68v.2zm48.3-10.4c.7 0 1.1.2 1.1.7 0 .3-.2.6-.6.7l.6 1.1h-.7l-.5-1.1h-.3v1.1h-.6V9.6h1zm0-1c-1.3 0-2.3 1-2.4 2.3 0 1.3 1 2.3 2.3 2.4 1.3 0 2.3-1 2.4-2.3-.1-1.4-1.1-2.4-2.3-2.4zm1.8 2.3c0 1-.9 1.8-1.9 1.8s-1.8-.9-1.8-1.9c0-1 .8-1.8 1.8-1.8 1.1 0 1.9.9 1.9 1.9zm-2.2-.2h.3c.4 0 .5-.1.5-.4s-.2-.4-.6-.4h-.3l.1.8zM16.7 32C6.7 32 0 24.8 0 16S6.7 0 16.7 0h94.6c10 0 16.7 7.3 16.7 16s-6.7 16-16.7 16H16.7zm.1-28.1C8.8 4 3.9 9.3 3.9 16s4.8 12.1 12.8 12.1h94.5c8 0 12.8-5.4 12.8-12.1s-4.8-12-12.8-12.1H16.8z" fill="white"/></svg>