<svg xmlns="http://www.w3.org/2000/svg" height="1em" width="1em" viewBox="0 0 539.07 511.98" xml:space="preserve"><path d="m477.05 152.88 20.66 320.34H41.35L62 152.88h415m36.35-38.77H25.67L0 512h539.07L513.4 114.11ZM382.27 226.63V77.72A77.73 77.73 0 0 0 304.54 0h-70a77.73 77.73 0 0 0-77.74 77.72v148.91a2.77 2.77 0 0 0 2.77 2.77h33.24a2.77 2.77 0 0 0 2.76-2.77V77.72a39 39 0 0 1 39-39h70a39 39 0 0 1 38.95 39v148.91a2.77 2.77 0 0 0 2.77 2.77h33.21a2.77 2.77 0 0 0 2.77-2.77Z" class="nav-icon-nintendoeshop" fill="#999"/></svg>